<svg width="33" height="45" viewBox="0 0 33 45" fill="none" xmlns="http://www.w3.org/2000/svg">
<path d="M31.7657 44.9H0.965686C0.665686 44.9 0.365686 44.7 0.165686 44.5C-0.0343143 44.2 -0.0343147 43.9 0.0656853 43.6L15.4657 6.79995C15.5657 6.39995 15.9657 6.19995 16.3657 6.19995C16.7657 6.19995 17.1657 6.39995 17.2657 6.79995L32.6657 43.6C32.7657 43.9 32.7657 44.3 32.5657 44.5C32.4657 44.8 32.0657 44.9 31.7657 44.9ZM2.46569 42.9H30.2657L16.3657 9.69995L2.46569 42.9Z" fill="#C9B89C"/>
<path d="M16.3656 8.2C14.0656 8.2 12.2656 6.3 12.2656 4.1C12.2656 1.8 14.1656 0 16.3656 0C18.5656 0 20.4656 1.9 20.4656 4.1C20.4656 6.3 18.6656 8.2 16.3656 8.2ZM16.3656 1.9C15.1656 1.9 14.2656 2.9 14.2656 4C14.2656 5.2 15.2656 6.1 16.3656 6.1C17.4656 6.1 18.4656 5.1 18.4656 4C18.4656 2.8 17.5656 1.9 16.3656 1.9Z" fill="#C9B89C"/>
<path d="M20.2652 17.5H12.3652C11.7652 17.5 11.3652 17.1 11.3652 16.5C11.3652 15.9 11.7652 15.5 12.3652 15.5H20.2652C20.8652 15.5 21.2652 15.9 21.2652 16.5C21.2652 17.1 20.8652 17.5 20.2652 17.5Z" fill="#C9B89C"/>
<path d="M23.7648 26.5H8.96484C8.36484 26.5 7.96484 26.1 7.96484 25.5C7.96484 24.9 8.36484 24.5 8.96484 24.5H23.8648C24.4648 24.5 24.8648 24.9 24.8648 25.5C24.8648 26.1 24.3648 26.5 23.7648 26.5Z" fill="#C9B89C"/>
<path d="M27.4656 35.5H5.26562C4.66562 35.5 4.26562 35.1 4.26562 34.5C4.26562 33.9 4.66562 33.5 5.26562 33.5H27.4656C28.0656 33.5 28.4656 33.9 28.4656 34.5C28.4656 35.1 28.0656 35.5 27.4656 35.5Z" fill="#C9B89C"/>
</svg>
