<svg width="47" height="31" viewBox="0 0 47 31" fill="none" xmlns="http://www.w3.org/2000/svg">
<path d="M5.6 11.7H3.7C1.7 11.7 0 10.1 0 7.99995V2.69995C0 2.09995 0.4 1.69995 1 1.69995C1.6 1.69995 2 2.09995 2 2.69995V7.99995C2 8.89995 2.7 9.69995 3.7 9.69995H5.6C6.5 9.69995 7.3 8.99995 7.3 7.99995V2.69995C7.3 2.09995 7.7 1.69995 8.3 1.69995C8.9 1.69995 9.3 2.09995 9.3 2.69995V7.99995C9.2 9.99995 7.6 11.7 5.6 11.7Z" fill="#C9B89C"/>
<path d="M4.59961 11.7C3.99961 11.7 3.59961 11.3 3.59961 10.7V2.69995C3.59961 2.09995 3.99961 1.69995 4.59961 1.69995C5.19961 1.69995 5.59961 2.09995 5.59961 2.69995V10.7C5.59961 11.2 5.19961 11.7 4.59961 11.7Z" fill="#C9B89C"/>
<path d="M4.59961 29.0999C3.99961 29.0999 3.59961 28.6999 3.59961 28.0999V11.0999C3.59961 10.4999 3.99961 10.0999 4.59961 10.0999C5.19961 10.0999 5.59961 10.4999 5.59961 11.0999V27.9999C5.59961 28.5999 5.19961 29.0999 4.59961 29.0999Z" fill="#C9B89C"/>
<path d="M42.9004 29.1C42.3004 29.1 41.9004 28.7 41.9004 28.1V2.69995C41.9004 2.39995 42.0004 2.19995 42.2004 1.99995C42.4004 1.79995 42.6004 1.69995 42.9004 1.69995C43.7004 1.69995 44.3004 2.39995 44.7004 3.09995C47.1004 6.49995 47.6004 11 46.2004 15.1C45.6004 16.8 44.8004 17.9 43.9004 18.4V28.1C43.9004 28.6 43.4004 29.1 42.9004 29.1ZM43.9004 5.59995V15.4C44.0004 15.1 44.2004 14.8 44.4004 14.3C45.4004 11.4 45.2004 8.29995 43.9004 5.59995Z" fill="#C9B89C"/>
<path d="M24.8992 30.4C16.4992 30.4 9.69922 23.6 9.69922 15.2C9.69922 6.8 16.4992 0 24.8992 0C33.2992 0 40.0992 6.8 40.0992 15.2C40.0992 23.6 33.2992 30.4 24.8992 30.4ZM24.8992 2C17.5992 2 11.6992 7.9 11.6992 15.2C11.6992 22.5 17.5992 28.4 24.8992 28.4C32.1992 28.4 38.0992 22.5 38.0992 15.2C38.0992 7.9 32.1992 2 24.8992 2Z" fill="#C9B89C"/>
</svg>
