<svg width="33" height="47" viewBox="0 0 33 47" fill="none" xmlns="http://www.w3.org/2000/svg">
<path d="M31.3598 34.7H0.959808C0.559808 34.7 0.159808 34.5 0.0598075 34.1C-0.0401925 33.7 -0.0401922 33.3 0.259808 33L8.75981 24.5L4.05981 19.8C3.85981 19.6 3.75981 19.4 3.75981 19.1C3.75981 18.8 3.85981 18.6 4.05981 18.4L9.55981 12.9L6.95981 10.3C6.75981 10.1 6.65981 9.9 6.65981 9.6C6.65981 9.3 6.75981 9.1 6.95981 8.9L15.5598 0.3C15.9598 -0.1 16.5598 -0.1 16.9598 0.3L25.5598 8.9C25.7598 9.1 25.8598 9.3 25.8598 9.6C25.8598 9.9 25.7598 10.1 25.5598 10.3L22.9598 12.9L28.4598 18.4C28.6598 18.6 28.7598 18.8 28.7598 19.1C28.7598 19.4 28.6598 19.6 28.4598 19.8L23.5598 24.5L32.0598 33C32.3598 33.3 32.4598 33.7 32.2598 34.1C32.0598 34.5 31.7598 34.7 31.3598 34.7ZM3.45981 32.7H28.9598L21.4598 25.2C21.2598 25.1 21.1598 24.8 21.1598 24.5C21.1598 24.2 21.2598 24 21.4598 23.8L26.1598 19.1L20.6598 13.6C20.4598 13.4 20.3598 13.2 20.3598 12.9C20.3598 12.6 20.4598 12.4 20.6598 12.2L23.2598 9.6L16.1598 2.4L8.95981 9.6L11.5598 12.2C11.7598 12.4 11.8598 12.6 11.8598 12.9C11.8598 13.2 11.7598 13.4 11.5598 13.6L6.15981 19.1L10.8598 23.8C11.0598 24 11.1598 24.2 11.1598 24.5C11.1598 24.8 11.0598 25 10.8598 25.2L3.45981 32.7Z" fill="#C9B89C"/>
<path d="M16.1602 47.0002C15.5602 47.0002 15.1602 46.6002 15.1602 46.0002V33.7002C15.1602 33.1002 15.5602 32.7002 16.1602 32.7002C16.7602 32.7002 17.1602 33.1002 17.1602 33.7002V46.0002C17.1602 46.5002 16.7602 47.0002 16.1602 47.0002Z" fill="#C9B89C"/>
</svg>
